<svg viewBox="0 0 26 26" fill="none" xmlns="http://www.w3.org/2000/svg">
<path d="M0.059236 9.78788C0.150038 9.49756 0.311998 9.2371 0.529019 9.03239C0.746039 8.82768 1.01056 8.68584 1.29632 8.62094L8.08037 7.12059L11.5522 0.869128C11.6972 0.605024 11.9065 0.385581 12.1587 0.232974C12.411 0.0803656 12.6973 0 12.9888 0C13.2803 0 13.5667 0.0803656 13.819 0.232974C14.0712 0.385581 14.2804 0.605024 14.4254 0.869128L17.8973 7.12059L24.6814 8.62094C24.9656 8.68962 25.2283 8.8328 25.4447 9.03699C25.6612 9.24117 25.8242 9.4996 25.9185 9.78788C26.0083 10.0756 26.0242 10.3829 25.9647 10.6791C25.9052 10.9753 25.7722 11.25 25.5792 11.4758L20.9302 16.8729L21.6485 24.0829C21.6753 24.3834 21.6291 24.6862 21.514 24.963C21.3989 25.2399 21.2186 25.4819 20.99 25.6666C20.7028 25.876 20.3626 25.992 20.0124 26C19.7798 25.9931 19.5502 25.9437 19.334 25.8541L12.9888 22.8118L6.64374 25.7708C6.37734 25.8882 6.08616 25.9308 5.79911 25.8943C5.51206 25.8577 5.23913 25.7433 5.00757 25.5624C4.77257 25.3875 4.58605 25.1508 4.46691 24.8764C4.34777 24.6019 4.30024 24.2994 4.32917 23.9995L5.04752 16.7895L0.398405 11.3924C0.22196 11.1735 0.0989458 10.9132 0.0398723 10.6337C-0.0192012 10.3543 -0.0125412 10.0641 0.059236 9.78788Z" fill="#FF3B72"/>
</svg>
